<svg width="391.11mm" height="133.71mm" version="1.1" viewBox="0 0 391.11 133.71" xmlns="http://www.w3.org/2000/svg">
 <g transform="translate(70.17 -32.932)">
  <g transform="matrix(.35278 0 0 .35278 -212.58 -29.56)">
   <g transform="matrix(.60127 0 0 .60127 403.69 177.14)">
    <rect width="630" height="630" fill="#f7df1e"/>
    <path d="m423.2 492.19c12.69 20.72 29.2 35.95 58.4 35.95 24.53 0 40.2-12.26 40.2-29.2 0-20.3-16.1-27.49-43.1-39.3l-14.8-6.35c-42.72-18.2-71.1-41-71.1-89.2 0-44.4 33.83-78.2 86.7-78.2 37.64 0 64.7 13.1 84.2 47.4l-46.1 29.6c-10.15-18.2-21.1-25.37-38.1-25.37-17.34 0-28.33 11-28.33 25.37 0 17.76 11 24.95 36.4 35.95l14.8 6.34c50.3 21.57 78.7 43.56 78.7 93 0 53.3-41.87 82.5-98.1 82.5-54.98 0-90.5-26.2-107.88-60.54zm-209.13 5.13c9.3 16.5 17.76 30.45 38.1 30.45 19.45 0 31.72-7.61 31.72-37.2v-201.3h59.2v202.1c0 61.3-35.94 89.2-88.4 89.2-47.4 0-74.85-24.53-88.81-54.075z"/>
   </g>
   <rect x="782.49" y="177.14" width="379.01" height="379.01" fill="#512bd4"/>
   <g transform="matrix(.96844 0 0 .84609 885.66 159.34)">
    <text transform="scale(.91514 1.0927)" x="-23.953091" y="279.80118" fill="#ffffff" font-family="sans-serif" font-size="147.67px" stroke-width="3.6918" style="line-height:1.25" xml:space="preserve"><tspan x="-23.953091" y="279.80118" fill="#ffffff" stroke-width="3.6918">NET</tspan></text>
    <ellipse cx="-35.876" cy="296.3" rx="11.395" ry="12.163" fill="#fff"/>
   </g>
  </g>
  <path d="m221.94 93.565c0.2796-25.067 13.325-32.913 20.429-32.913 9.9211 0 14.019 7.5739 14.688 10.927 0.66917 3.3505 4.4242 6.0305 5.6307 0.53451 1.2074-5.496 12.879-22.255 27.224-22.255 13.137 0 17.687 13.548 17.294 25.071-1.0751 31.37-41.487 56.407-46.806 72.216-4.7364-9.5749-38.793-23.416-38.459-53.581zm72.665-51.479c-11.798 0-25.75 8.7133-34.195 23.193-2.2787-5.2294-10.398-10.928-20.049-10.928-7.777 0-29.606 9.7198-29.606 41.091 0 40.486 40.962 48.802 49.243 61.386 0.569 0.86538 2.4018 1.5192 3.1012-0.54847 6.6074-19.5 57.842-41.532 57.842-81.214-4.7e-4 -22.254-14.538-32.979-26.335-32.979z" fill="#fff" stroke-width=".466"/>
 </g>
</svg>
